<?xml version="1.0" standalone="no"?>

<!DOCTYPE svg PUBLIC "-//W3C//DTD SVG 20010904//EN"

 "http://www.w3.org/TR/2001/REC-SVG-20010904/DTD/svg10.dtd">

<svg version="1.0" xmlns="http://www.w3.org/2000/svg"

 width="200.000000pt" height="120.000000pt" viewBox="0 0 200.000000 120.000000"

 preserveAspectRatio="xMidYMid meet">

<path stroke="#010101" fill="none" d="
M79 75

L78 76

L78 76

L77 77

L77 77

L76 78

L76 78

L75 78

L75 78

L74 79

L74 79

L73 80

L73 80

L72 80

L72 80

L71 80

L71 80

L70 81

L70 81

L69 81

L69 81

L68 82

L68 82

L67 82

L67 82

L66 83

L66 83

L65 83

L65 83

L64 84

L64 84

L63 84

L63 84

L62 85

L62 85

L61 85

L61 85

L60 86

L60 86

L59 86

L59 86

L58 87

L58 87

L57 87

L57 87

L56 88

L56 88

L55 89

L55 89

L54 89

L54 89

L53 90

L53 90

L52 90

L52 90

L51 91

L51 91

L50 91

L50 91

L49 92

L49 92

L48 92

L48 92

L47 93

L47 93

L46 93

L46 93

L45 94

L45 94

L44 94

L44 94

L43 95

L43 95

L42 96

L42 96

L41 96

L41 96

L40 97

L40 97

L39 97

L39 97

L38 98

L38 98

L37 98

L37 98

L36 98

L36 98

L35 98

L35 98

L34 98

L34 98

L33 98

L33 98

L32 98

L32 98

L31 98

L31 98

L30 98

L30 98

L29 98

L29 98

L28 98

L28 98

L27 97

L27 97

L26 96

L26 96

L25 95

L25 95

L24 94

L24 94

L23 93

L23 93

L23 92

L23 92

L23 91

L23 91

L22 90

L22 90

L22 89

L22 89

L22 88

L22 88

L21 87

L21 87

L21 86

L21 86

L21 85

L21 85

L20 84

L20 84

L20 83

L20 83

L20 82

L20 82

L19 81

L19 81

L19 80

L19 80

L18 79

L18 79

L18 78

L18 78

L17 77

L17 77

L17 76

L17 76

L16 75

L16 75

L16 74

L16 74

L15 73

L15 73

L15 72

L15 72

L14 71

L14 71

L14 70

L14 70

L13 69

L13 69

L13 68

L13 68

L12 67

L12 67

L12 66

L12 66

L11 65

L11 65

L12 64

L12 64

L13 63

L13 63

L14 62

L14 62

L15 61

L15 61

L16 60

L16 60

L17 59

L17 59

L17 58

L17 58

L18 57

L18 57

L18 56

L18 56

L18 55

L18 55

L18 54

L18 54

L18 53

L18 53

L19 52

L19 52

L19 51

L19 51

L19 50

L19 50

L19 49

L19 49

L19 48

L19 48

L19 47

L19 47

L20 46

L20 46

L20 45

L20 45

L21 44

L21 44

L21 43

L21 43

L21 42

L21 42

L22 41

L22 41

L22 40

L22 40

L23 39

L23 39

L24 38

L24 38

L24 37

L24 37

L25 36

L25 36

L26 35

L26 35

L27 34

L27 34

L28 33

L28 33

L29 32

L29 32

L30 31

L30 31

L31 30

L31 30

L32 30

L32 30

L33 29

L33 29

L34 28

L34 28

L35 28

L35 28

L36 27

L36 27

L37 27

L37 27

L38 26

L38 26

L39 26

L39 26

L40 26

L40 26

L41 25

L41 25

L42 25

L42 25

L43 25

L43 25

L44 25

L44 25

L45 25

L45 25

L46 24

L46 24

L47 24

L47 24

L48 24

L48 24

L49 24

L49 24

L50 24

L50 24

L51 24

L51 24

L52 24

L52 24

L53 23

L53 23

L54 23

L54 23

L55 23

L55 23

L56 23

L56 23

L57 23

L57 23

L58 23

L58 23

L59 23

L59 23

L60 23

L60 23

L61 23

L61 23

L62 23

L62 23

L63 23

L63 23

L64 24

L64 24

L65 24

L65 24

L66 24

L66 24

L67 24

L67 24

L68 25

L68 25

L69 25

L69 25

L70 25

L70 25

L71 26

L71 26

L72 26

L72 26

L73 27

L73 27

L74 28

L74 28

L75 28

L75 28

L76 29

L76 29

L77 29

L77 29

L78 30

L78 30

L79 31

L79 31

L80 32

L80 32

L81 33

L81 33

L82 34

L82 34

L83 35

L83 35

L84 36

L84 36

L84 37

L84 37

L85 38

L85 38

L86 39

L86 39

L86 40

L86 40

L87 41

L87 41

L87 42

L87 42

L88 43

L88 43

L88 44

L88 44

L88 45

L88 45

L89 46

L89 46

L89 47

L89 47

L89 48

L89 48

L89 49

L89 49

L89 50

L89 50

L89 51

L89 51

L89 52

L89 52

L89 53

L89 53

L89 54

L89 54

L89 55

L89 55

L89 56

L89 56

L89 57

L89 57

L89 58

L89 58

L89 59

L89 59

L89 60

L89 60

L88 61

L88 61

L88 62

L88 62

L88 63

L88 63

L87 64

L87 64

L87 65

L87 65

L87 66

L87 66

L86 67

L86 67

L85 68

L85 68

L85 69

L85 69

L84 70

L84 70

L84 71

L84 71

L84 72

L84 72

L84 73

L84 73

L84 74

L84 74

L84 75

L84 75

L84 76

L84 76

L84 77

L84 77

L84 78

L84 78

L84 79

L84 79

L84 80

L84 80

L85 81

L85 81

L86 81

L86 81

L87 82

L87 82

L88 83

L88 83

L88 84

L88 84

L89 85

L89 85

L89 86

L89 86

L89 87

L89 87

L89 88

L89 88

L89 89

L89 89

L89 90

L89 90

L88 91

L88 91

L88 92

L88 92

L87 93

L87 93

L86 93

L86 93

L85 93

L85 93

L84 94

L84 94

L83 94

L83 94

L82 94

L82 94

L81 94

L81 94

L80 93

L80 93

L79 93

L79 93

L78 92

L78 92

L77 92

L77 92

L76 92

L76 92

L75 92

L75 92

L74 93

L74 93

L73 93

L73 93

L72 94

L72 94

L71 94

L71 94

L70 95

L70 95

L69 95

L69 95

L68 96

L68 96

L67 96

L67 96

L66 96

L66 96

L65 97

L65 97

L64 97

L64 97

L63 98

L63 98

L62 98

L62 98

L61 99

L61 99

L60 99

L60 99

L59 99

L59 99

L58 100

L58 100

L57 99

L57 99

L56 98

L56 98

L57 97

L57 97

L58 96

L58 96

L59 96

L59 96

L60 96

L60 96

L61 95

L61 95

L62 95

L62 95

L63 94

L63 94

L64 94

L64 94

L65 93

L65 93

L66 93

L66 93

L67 92

L67 92

L68 92

L68 92

L69 92

L69 92

L70 91

L70 91

L71 90

L71 90

L72 90

L72 90

L73 90

L73 90

L74 89

L74 89

L75 88

L75 88

L76 87

L76 87

L76 86

L76 86

L76 85

L76 85

L77 84

L77 84

L78 83

L78 83

L79 82

L79 82

L80 81

L80 81

L80 80

L80 80

L81 79

L81 79

L81 78

L81 78

L81 77

L81 77

L81 76

L81 76

L81 74

L81 74

"/>

<path stroke="#010101" fill="none" d="
M48 27

L49 27

L49 27

L50 27

L50 27

L51 27

L51 27

L52 27

L52 27

L53 27

L53 27

L54 27

L54 27

L55 27

L55 27

L56 27

L56 27

L57 27

L57 27

L58 27

L58 27

L59 27

L59 27

L60 27

L60 27

L61 27

L61 27

L62 27

L62 27

L63 27

L63 27

L64 27

L64 27

L65 27

L65 27

L66 28

L66 28

L67 28

L67 28

L68 28

L68 28

L69 29

L69 29

L70 29

L70 29

L71 30

L71 30

L72 30

L72 30

L73 31

L73 31

L74 32

L74 32

L75 32

L75 32

L76 33

L76 33

L77 34

L77 34

L78 35

L78 35

L79 36

L79 36

L80 37

L80 37

L81 38

L81 38

L82 39

L82 39

L82 40

L82 40

L83 41

L83 41

L83 42

L83 42

L84 43

L84 43

L84 44

L84 44

L85 45

L85 45

L85 46

L85 46

L85 47

L85 47

L86 48

L86 48

L86 49

L86 49

L86 50

L86 50

L86 51

L86 51

L86 52

L86 52

L86 53

L86 53

L86 54

L86 54

L86 55

L86 55

L86 56

L86 56

L86 57

L86 57

L85 58

L85 58

L85 59

L85 59

L85 60

L85 60

L85 61

L85 61

L84 62

L84 62

L84 63

L84 63

L84 64

L84 64

L83 65

L83 65

L83 66

L83 66

L82 67

L82 67

L82 68

L82 68

L81 69

L81 69

L80 70

L80 70

L79 71

L79 71

L78 72

L78 72

L77 72

L77 72

L76 73

L76 73

L75 74

L75 74

L74 75

L74 75

L73 76

L73 76

L72 76

L72 76

L71 77

L71 77

L70 77

L70 77

L69 78

L69 78

L68 78

L68 78

L67 79

L67 79

L66 79

L66 79

L65 80

L65 80

L64 80

L64 80

L63 81

L63 81

L62 81

L62 81

L61 82

L61 82

L60 82

L60 82

L59 83

L59 83

L58 83

L58 83

L57 84

L57 84

L56 84

L56 84

L55 85

L55 85

L54 85

L54 85

L53 86

L53 86

L52 86

L52 86

L51 87

L51 87

L50 87

L50 87

L49 88

L49 88

L48 88

L48 88

L47 89

L47 89

L46 90

L46 90

L45 90

L45 90

L44 91

L44 91

L43 91

L43 91

L42 92

L42 92

L41 92

L41 92

L40 93

L40 93

L39 93

L39 93

L38 94

L38 94

L37 94

L37 94

L36 95

L36 95

L35 95

L35 95

L34 95

L34 95

L33 95

L33 95

L32 95

L32 95

L31 95

L31 95

L30 95

L30 95

L29 94

L29 94

L28 94

L28 94

L27 93

L27 93

L27 92

L27 92

L26 91

L26 91

L26 90

L26 90

L26 89

L26 89

L25 88

L25 88

L25 87

L25 87

L25 86

L25 86

L24 85

L24 85

L24 84

L24 84

L24 83

L24 83

L24 82

L24 82

L25 81

L25 81

L26 81

L26 81

L27 81

L27 81

L28 80

L28 80

L29 80

L29 80

L30 80

L30 80

L31 79

L31 79

L32 79

L32 79

L33 79

L33 79

L34 78

L34 78

L35 77

L35 77

L36 76

L36 76

L36 75

L36 75

L36 74

L36 74

L35 73

L35 73

L34 73

L34 73

L33 74

L33 74

L32 75

L32 75

L31 76

L31 76

L30 76

L30 76

L29 77

L29 77

L28 77

L28 77

L27 77

L27 77

L26 77

L26 77

L25 78

L25 78

L24 78

L24 78

L23 78

L23 78

L22 78

L22 78

L21 77

L21 77

L21 76

L21 76

L20 75

L20 75

L20 74

L20 74

L19 73

L19 73

L19 72

L19 72

L18 71

L18 71

L18 70

L18 70

L17 69

L17 69

L17 68

L17 68

L16 67

L16 67

L16 66

L16 66

L16 65

L16 65

L17 64

L17 64

L18 63

L18 63

L19 62

L19 62

L20 61

L20 61

L20 60

L20 60

L21 59

L21 59

L21 58

L21 58

L21 57

L21 57

L22 56

L22 56

L23 55

L23 55

L24 55

L24 55

L25 55

L25 55

L26 55

L26 55

L27 55

L27 55

L28 55

L28 55

L29 55

L29 55

L30 54

L30 54

L30 53

L30 53

L29 52

L29 52

L28 52

L28 52

L27 52

L27 52

L26 52

L26 52

L25 52

L25 52

L24 52

L24 52

L23 52

L23 52

L22 51

L22 51

L22 50

L22 50

L22 49

L22 49

L23 48

L23 48

L23 47

L23 47

L23 46

L23 46

L24 45

L24 45

L24 44

L24 44

L25 43

L25 43

L25 42

L25 42

L26 41

L26 41

L27 40

L27 40

L27 39

L27 39

L28 38

L28 38

L29 37

L29 37

L30 36

L30 36

L31 35

L31 35

L32 34

L32 34

L33 33

L33 33

L34 32

L34 32

L35 32

L35 32

L36 31

L36 31

L37 31

L37 31

L38 30

L38 30

L39 30

L39 30

L40 29

L40 29

L41 29

L41 29

L42 29

L42 29

L43 28

L43 28

L44 28

L44 28

L45 28

L45 28

L46 28

L46 28

L48 27

L48 27

Z

"/>

<path stroke="#010101" fill="none" d="
M94 27

L95 27

L95 27

L96 27

L96 27

L97 27

L97 27

L98 27

L98 27

L99 27

L99 27

L100 27

L100 27

L101 27

L101 27

L102 27

L102 27

L103 27

L103 27

L104 27

L104 27

L105 27

L105 27

L106 27

L106 27

L107 27

L107 27

L108 27

L108 27

L109 27

L109 27

L110 27

L110 27

L111 27

L111 27

L112 27

L112 27

L113 27

L113 27

L114 27

L114 27

L115 27

L115 27

L116 27

L116 27

L117 27

L117 27

L118 27

L118 27

L119 27

L119 27

L120 27

L120 27

L121 27

L121 27

L122 27

L122 27

L123 27

L123 27

L124 27

L124 27

L125 27

L125 27

L126 27

L126 27

L127 27

L127 27

L128 27

L128 27

L129 27

L129 27

L130 27

L130 27

L131 27

L131 27

L132 27

L132 27

L133 27

L133 27

L134 27

L134 27

L135 27

L135 27

L136 27

L136 27

L137 27

L137 27

L138 27

L138 27

L139 27

L139 27

L140 27

L140 27

L141 27

L141 27

L142 27

L142 27

L143 27

L143 27

L144 27

L144 27

L145 27

L145 27

L146 27

L146 27

L147 27

L147 27

L148 27

L148 27

L149 27

L149 27

L150 27

L150 27

L151 27

L151 27

L152 27

L152 27

L153 27

L153 27

L154 27

L154 27

L155 27

L155 27

L156 27

L156 27

L157 27

L157 27

L158 27

L158 27

L159 27

L159 27

L160 27

L160 27

L161 27

L161 27

L162 27

L162 27

L163 27

L163 27

L164 27

L164 27

L165 27

L165 27

L166 27

L166 27

L167 27

L167 27

L168 27

L168 27

L169 27

L169 27

L170 27

L170 27

L171 27

L171 27

L172 27

L172 27

L173 27

L173 27

L174 27

L174 27

L175 28

L175 28

L176 29

L176 29

L176 30

L176 30

L176 31

L176 31

L176 32

L176 32

L176 33

L176 33

L176 34

L176 34

L176 35

L176 35

L176 36

L176 36

L176 37

L176 37

L176 38

L176 38

L176 39

L176 39

L176 40

L176 40

L176 41

L176 41

L176 42

L176 42

L176 43

L176 43

L176 44

L176 44

L176 45

L176 45

L176 46

L176 46

L176 47

L176 47

L176 48

L176 48

L176 49

L176 49

L176 50

L176 50

L176 51

L176 51

L176 52

L176 52

L176 53

L176 53

L176 54

L176 54

L176 55

L176 55

L176 56

L176 56

L176 57

L176 57

L176 58

L176 58

L176 59

L176 59

L176 60

L176 60

L176 61

L176 61

L176 62

L176 62

L176 63

L176 63

L176 64

L176 64

L176 65

L176 65

L176 66

L176 66

L176 67

L176 67

L176 68

L176 68

L176 69

L176 69

L176 70

L176 70

L176 71

L176 71

L176 72

L176 72

L176 73

L176 73

L176 74

L176 74

L176 75

L176 75

L176 76

L176 76

L176 77

L176 77

L176 78

L176 78

L176 79

L176 79

L176 80

L176 80

L176 81

L176 81

L176 82

L176 82

L176 83

L176 83

L176 84

L176 84

L176 85

L176 85

L176 86

L176 86

L176 87

L176 87

L176 88

L176 88

L176 89

L176 89

L176 90

L176 90

L176 91

L176 91

L176 92

L176 92

L176 93

L176 93

L175 94

L175 94

L174 94

L174 94

L173 95

L173 95

L172 95

L172 95

L171 95

L171 95

L170 95

L170 95

L169 95

L169 95

L168 95

L168 95

L167 95

L167 95

L166 95

L166 95

L165 95

L165 95

L164 95

L164 95

L163 95

L163 95

L162 95

L162 95

L161 95

L161 95

L160 95

L160 95

L159 95

L159 95

L158 95

L158 95

L157 95

L157 95

L156 95

L156 95

L155 95

L155 95

L154 95

L154 95

L153 95

L153 95

L152 95

L152 95

L151 95

L151 95

L150 95

L150 95

L149 95

L149 95

L148 95

L148 95

L147 95

L147 95

L146 95

L146 95

L145 95

L145 95

L144 95

L144 95

L143 95

L143 95

L142 95

L142 95

L141 95

L141 95

L140 95

L140 95

L139 95

L139 95

L138 95

L138 95

L137 95

L137 95

L136 95

L136 95

L135 95

L135 95

L134 95

L134 95

L133 95

L133 95

L132 95

L132 95

L131 95

L131 95

L130 95

L130 95

L129 95

L129 95

L128 95

L128 95

L127 95

L127 95

L126 95

L126 95

L125 95

L125 95

L124 95

L124 95

L123 95

L123 95

L122 95

L122 95

L121 95

L121 95

L120 95

L120 95

L119 95

L119 95

L118 95

L118 95

L117 95

L117 95

L116 95

L116 95

L115 95

L115 95

L114 95

L114 95

L113 95

L113 95

L112 95

L112 95

L111 95

L111 95

L110 95

L110 95

L109 95

L109 95

L108 95

L108 95

L107 95

L107 95

L106 95

L106 95

L105 95

L105 95

L104 95

L104 95

L103 95

L103 95

L102 95

L102 95

L101 95

L101 95

L100 95

L100 95

L99 95

L99 95

L98 95

L98 95

L97 95

L97 95

L96 95

L96 95

L95 95

L95 95

L94 95

L94 95

L93 94

L93 94

L92 93

L92 93

L92 92

L92 92

L92 91

L92 91

L92 90

L92 90

L92 89

L92 89

L92 88

L92 88

L92 87

L92 87

L92 86

L92 86

L92 85

L92 85

L92 84

L92 84

L92 83

L92 83

L92 82

L92 82

L92 81

L92 81

L92 80

L92 80

L92 79

L92 79

L92 78

L92 78

L92 77

L92 77

L92 76

L92 76

L92 75

L92 75

L92 74

L92 74

L92 73

L92 73

L92 72

L92 72

L92 71

L92 71

L92 70

L92 70

L92 69

L92 69

L92 68

L92 68

L92 67

L92 67

L92 66

L92 66

L92 65

L92 65

L92 64

L92 64

L92 63

L92 63

L92 62

L92 62

L92 61

L92 61

L92 60

L92 60

L92 59

L92 59

L92 58

L92 58

L92 57

L92 57

L92 56

L92 56

L92 55

L92 55

L92 54

L92 54

L92 53

L92 53

L92 52

L92 52

L92 51

L92 51

L92 50

L92 50

L92 49

L92 49

L92 48

L92 48

L92 47

L92 47

L92 46

L92 46

L92 45

L92 45

L92 44

L92 44

L92 43

L92 43

L92 42

L92 42

L92 41

L92 41

L92 40

L92 40

L92 39

L92 39

L92 38

L92 38

L92 37

L92 37

L92 36

L92 36

L92 35

L92 35

L92 34

L92 34

L92 33

L92 33

L92 32

L92 32

L92 31

L92 31

L92 30

L92 30

L92 29

L92 29

L94 27

L94 27

Z

"/>

<path stroke="#010101" fill="none" d="
M105 36

L106 37

L106 37

L107 38

L107 38

L108 39

L108 39

L108 40

L108 40

L108 41

L108 41

L109 42

L109 42

L109 43

L109 43

L110 44

L110 44

L110 45

L110 45

L110 46

L110 46

L111 47

L111 47

L111 48

L111 48

L111 49

L111 49

L112 50

L112 50

L112 51

L112 51

L113 52

L113 52

L113 53

L113 53

L113 54

L113 54

L112 55

L112 55

L111 55

L111 55

L110 54

L110 54

L110 53

L110 53

L110 52

L110 52

L109 51

L109 51

L109 50

L109 50

L108 49

L108 49

L107 49

L107 49

L106 49

L106 49

L105 49

L105 49

L104 49

L104 49

L103 49

L103 49

L102 49

L102 49

L101 50

L101 50

L100 51

L100 51

L100 52

L100 52

L100 53

L100 53

L100 54

L100 54

L99 55

L99 55

L98 55

L98 55

L97 54

L97 54

L97 53

L97 53

L97 52

L97 52

L98 51

L98 51

L98 50

L98 50

L99 49

L99 49

L99 48

L99 48

L99 47

L99 47

L100 46

L100 46

L100 45

L100 45

L101 44

L101 44

L101 43

L101 43

L101 42

L101 42

L102 41

L102 41

L102 40

L102 40

L102 39

L102 39

L103 38

L103 38

L105 36

L105 36

Z

"/>

<path stroke="#010101" fill="none" d="
M149 36

L150 36

L150 36

L151 36

L151 36

L152 36

L152 36

L153 36

L153 36

L154 36

L154 36

L155 36

L155 36

L156 36

L156 36

L157 36

L157 36

L158 36

L158 36

L159 37

L159 37

L160 37

L160 37

L161 38

L161 38

L162 39

L162 39

L162 40

L162 40

L162 41

L162 41

L162 42

L162 42

L162 43

L162 43

L162 44

L162 44

L161 45

L161 45

L160 46

L160 46

L161 47

L161 47

L161 48

L161 48

L162 49

L162 49

L162 50

L162 50

L162 51

L162 51

L162 52

L162 52

L162 53

L162 53

L162 54

L162 54

L161 55

L161 55

L160 54

L160 54

L160 53

L160 53

L160 52

L160 52

L159 51

L159 51

L159 50

L159 50

L159 49

L159 49

L158 48

L158 48

L157 47

L157 47

L156 47

L156 47

L155 47

L155 47

L154 47

L154 47

L153 47

L153 47

L152 47

L152 47

L151 48

L151 48

L150 49

L150 49

L150 50

L150 50

L150 51

L150 51

L150 52

L150 52

L150 53

L150 53

L150 54

L150 54

L149 55

L149 55

L148 54

L148 54

L148 53

L148 53

L148 52

L148 52

L148 51

L148 51

L148 50

L148 50

L148 49

L148 49

L148 48

L148 48

L148 47

L148 47

L148 46

L148 46

L148 45

L148 45

L148 44

L148 44

L148 43

L148 43

L148 42

L148 42

L148 41

L148 41

L148 40

L148 40

L148 39

L148 39

L148 38

L148 38

L149 36

L149 36

Z

"/>

<path stroke="#010101" fill="none" d="
M54 37

L55 37

L55 37

L56 37

L56 37

L57 37

L57 37

L58 37

L58 37

L59 37

L59 37

L60 37

L60 37

L61 37

L61 37

L62 38

L62 38

L63 38

L63 38

L64 39

L64 39

L65 39

L65 39

L66 40

L66 40

L67 41

L67 41

L68 41

L68 41

L69 42

L69 42

L69 43

L69 43

L70 44

L70 44

L71 45

L71 45

L71 46

L71 46

L72 47

L72 47

L72 48

L72 48

L73 49

L73 49

L73 50

L73 50

L73 51

L73 51

L73 52

L73 52

L73 53

L73 53

L73 54

L73 54

L73 55

L73 55

L73 56

L73 56

L72 57

L72 57

L72 58

L72 58

L72 59

L72 59

L71 60

L71 60

L71 61

L71 61

L70 62

L70 62

L69 63

L69 63

L68 64

L68 64

L67 65

L67 65

L66 66

L66 66

L65 66

L65 66

L64 66

L64 66

L63 67

L63 67

L62 67

L62 67

L61 67

L61 67

L60 68

L60 68

L59 68

L59 68

L58 68

L58 68

L57 68

L57 68

L56 68

L56 68

L55 68

L55 68

L54 67

L54 67

L53 67

L53 67

L52 67

L52 67

L51 67

L51 67

L50 66

L50 66

L49 65

L49 65

L48 65

L48 65

L47 64

L47 64

L46 63

L46 63

L45 62

L45 62

L45 61

L45 61

L44 60

L44 60

L44 59

L44 59

L43 58

L43 58

L43 57

L43 57

L43 56

L43 56

L42 55

L42 55

L42 54

L42 54

L42 53

L42 53

L42 52

L42 52

L42 51

L42 51

L42 50

L42 50

L43 49

L43 49

L43 48

L43 48

L43 47

L43 47

L44 46

L44 46

L45 45

L45 45

L45 44

L45 44

L46 43

L46 43

L47 42

L47 42

L48 41

L48 41

L49 40

L49 40

L50 39

L50 39

L51 39

L51 39

L52 38

L52 38

L54 37

L54 37

Z

"/>

<path stroke="#010101" fill="none" d="
M152 38

L153 38

L153 38

L154 38

L154 38

L155 38

L155 38

L156 38

L156 38

L157 39

L157 39

L158 39

L158 39

L159 40

L159 40

L160 41

L160 41

L160 42

L160 42

L159 43

L159 43

L158 44

L158 44

L157 45

L157 45

L156 45

L156 45

L155 45

L155 45

L154 45

L154 45

L153 45

L153 45

L152 45

L152 45

L151 44

L151 44

L150 43

L150 43

L150 42

L150 42

L150 41

L150 41

L150 40

L150 40

L152 38

L152 38

Z

"/>

<path stroke="#010101" fill="none" d="
M57 40

L58 40

L58 40

L59 41

L59 41

L60 41

L60 41

L61 41

L61 41

L62 41

L62 41

L63 42

L63 42

L64 42

L64 42

L65 43

L65 43

L66 44

L66 44

L67 45

L67 45

L68 46

L68 46

L68 47

L68 47

L69 48

L69 48

L69 49

L69 49

L69 50

L69 50

L70 51

L70 51

L70 52

L70 52

L70 53

L70 53

L70 54

L70 54

L69 55

L69 55

L69 56

L69 56

L69 57

L69 57

L69 58

L69 58

L68 59

L68 59

L67 60

L67 60

L67 61

L67 61

L66 62

L66 62

L65 62

L65 62

L64 63

L64 63

L63 63

L63 63

L62 64

L62 64

L61 64

L61 64

L60 64

L60 64

L59 64

L59 64

L58 64

L58 64

L57 64

L57 64

L56 64

L56 64

L55 64

L55 64

L54 64

L54 64

L53 63

L53 63

L52 63

L52 63

L51 63

L51 63

L50 62

L50 62

L49 61

L49 61

L48 60

L48 60

L47 59

L47 59

L47 58

L47 58

L47 57

L47 57

L46 56

L46 56

L46 55

L46 55

L46 54

L46 54

L46 53

L46 53

L46 52

L46 52

L46 51

L46 51

L46 50

L46 50

L46 49

L46 49

L47 48

L47 48

L47 47

L47 47

L48 46

L48 46

L49 45

L49 45

L50 44

L50 44

L51 43

L51 43

L52 42

L52 42

L53 42

L53 42

L54 41

L54 41

L55 41

L55 41

L57 40

L57 40

Z

"/>

<path stroke="#010101" fill="none" d="
M105 40

L106 41

L106 41

L106 42

L106 42

L107 43

L107 43

L107 44

L107 44

L107 45

L107 45

L108 46

L108 46

L107 47

L107 47

L106 47

L106 47

L105 47

L105 47

L104 47

L104 47

L103 47

L103 47

L102 46

L102 46

L103 45

L103 45

L103 44

L103 44

L103 43

L103 43

L104 42

L104 42

L105 40

L105 40

Z

"/>

<path stroke="#010101" fill="none" d="
M57 49

L58 49

L58 49

L59 50

L59 50

L60 51

L60 51

L61 52

L61 52

L61 53

L61 53

L61 54

L61 54

L60 55

L60 55

L59 55

L59 55

L58 56

L58 56

L57 56

L57 56

L56 56

L56 56

L55 55

L55 55

L55 54

L55 54

L54 53

L54 53

L54 52

L54 52

L55 51

L55 51

L57 49

L57 49

Z

"/>

<path stroke="#010101" fill="none" d="
M100 67

L101 67

L101 67

L102 67

L102 67

L103 67

L103 67

L104 67

L104 67

L105 67

L105 67

L106 67

L106 67

L107 67

L107 67

L108 67

L108 67

L109 67

L109 67

L110 68

L110 68

L111 68

L111 68

L112 69

L112 69

L112 70

L112 70

L113 71

L113 71

L113 72

L113 72

L113 73

L113 73

L113 74

L113 74

L112 75

L112 75

L112 76

L112 76

L111 77

L111 77

L112 78

L112 78

L112 79

L112 79

L112 80

L112 80

L113 81

L113 81

L113 82

L113 82

L113 83

L113 83

L113 84

L113 84

L113 85

L113 85

L112 86

L112 86

L111 85

L111 85

L110 84

L110 84

L110 83

L110 83

L110 82

L110 82

L110 81

L110 81

L110 80

L110 80

L109 79

L109 79

L108 78

L108 78

L107 78

L107 78

L106 78

L106 78

L105 78

L105 78

L104 78

L104 78

L103 78

L103 78

L102 78

L102 78

L101 79

L101 79

L101 80

L101 80

L101 81

L101 81

L101 82

L101 82

L101 83

L101 83

L101 84

L101 84

L101 85

L101 85

L100 86

L100 86

L99 85

L99 85

L99 84

L99 84

L99 83

L99 83

L99 82

L99 82

L99 81

L99 81

L99 80

L99 80

L99 79

L99 79

L99 78

L99 78

L99 77

L99 77

L99 76

L99 76

L99 75

L99 75

L99 74

L99 74

L99 73

L99 73

L99 72

L99 72

L99 71

L99 71

L99 70

L99 70

L99 69

L99 69

L100 67

L100 67

Z

"/>

<path stroke="#010101" fill="none" d="
M125 67

L126 67

L126 67

L127 67

L127 67

L128 67

L128 67

L129 67

L129 67

L130 67

L130 67

L131 67

L131 67

L132 67

L132 67

L133 67

L133 67

L134 68

L134 68

L135 68

L135 68

L136 69

L136 69

L137 70

L137 70

L137 71

L137 71

L137 72

L137 72

L137 73

L137 73

L137 74

L137 74

L137 75

L137 75

L137 76

L137 76

L136 77

L136 77

L135 78

L135 78

L134 78

L134 78

L133 78

L133 78

L132 78

L132 78

L131 78

L131 78

L130 78

L130 78

L129 78

L129 78

L128 78

L128 78

L127 79

L127 79

L126 80

L126 80

L126 81

L126 81

L126 82

L126 82

L126 83

L126 83

L126 84

L126 84

L126 85

L126 85

L125 86

L125 86

L124 85

L124 85

L123 84

L123 84

L123 83

L123 83

L123 82

L123 82

L123 81

L123 81

L123 80

L123 80

L123 79

L123 79

L123 78

L123 78

L123 77

L123 77

L123 76

L123 76

L123 75

L123 75

L123 74

L123 74

L123 73

L123 73

L123 72

L123 72

L123 71

L123 71

L123 70

L123 70

L123 69

L123 69

L125 67

L125 67

Z

"/>

<path stroke="#010101" fill="none" d="
M153 67

L154 67

L154 67

L155 68

L155 68

L156 69

L156 69

L156 70

L156 70

L157 71

L157 71

L157 72

L157 72

L157 73

L157 73

L158 74

L158 74

L158 75

L158 75

L159 76

L159 76

L159 77

L159 77

L159 78

L159 78

L160 79

L160 79

L160 80

L160 80

L160 81

L160 81

L161 82

L161 82

L161 83

L161 83

L162 84

L162 84

L162 85

L162 85

L161 86

L161 86

L160 86

L160 86

L159 85

L159 85

L159 84

L159 84

L158 83

L158 83

L158 82

L158 82

L157 81

L157 81

L156 80

L156 80

L155 80

L155 80

L154 80

L154 80

L153 80

L153 80

L152 80

L152 80

L151 80

L151 80

L150 81

L150 81

L149 82

L149 82

L149 83

L149 83

L148 84

L148 84

L148 85

L148 85

L147 86

L147 86

L146 85

L146 85

L146 84

L146 84

L146 83

L146 83

L146 82

L146 82

L147 81

L147 81

L147 80

L147 80

L148 79

L148 79

L148 78

L148 78

L148 77

L148 77

L149 76

L149 76

L149 75

L149 75

L149 74

L149 74

L150 73

L150 73

L150 72

L150 72

L151 71

L151 71

L151 70

L151 70

L151 69

L151 69

L153 67

L153 67

Z

"/>

<path stroke="#010101" fill="none" d="
M103 69

L104 69

L104 69

L105 69

L105 69

L106 69

L106 69

L107 69

L107 69

L108 69

L108 69

L109 70

L109 70

L110 71

L110 71

L110 72

L110 72

L110 73

L110 73

L110 74

L110 74

L109 75

L109 75

L108 75

L108 75

L107 76

L107 76

L106 76

L106 76

L105 76

L105 76

L104 76

L104 76

L103 76

L103 76

L102 75

L102 75

L101 74

L101 74

L101 73

L101 73

L101 72

L101 72

L101 71

L101 71

L103 69

L103 69

Z

"/>

<path stroke="#010101" fill="none" d="
M128 69

L129 69

L129 69

L130 69

L130 69

L131 69

L131 69

L132 70

L132 70

L133 70

L133 70

L134 71

L134 71

L135 72

L135 72

L135 73

L135 73

L134 74

L134 74

L133 75

L133 75

L132 76

L132 76

L131 76

L131 76

L130 76

L130 76

L129 76

L129 76

L128 76

L128 76

L127 76

L127 76

L126 75

L126 75

L126 74

L126 74

L126 73

L126 73

L126 72

L126 72

L126 71

L126 71

L128 69

L128 69

Z

"/>

<path stroke="#010101" fill="none" d="
M153 72

L154 72

L154 72

L155 73

L155 73

L155 74

L155 74

L155 75

L155 75

L156 76

L156 76

L156 77

L156 77

L155 78

L155 78

L154 78

L154 78

L153 78

L153 78

L152 78

L152 78

L151 77

L151 77

L151 76

L151 76

L152 75

L152 75

L152 74

L152 74

L153 72

L153 72

Z

"/>

<path stroke="#010101" fill="none" d="
M81 84

L82 84

L82 84

L83 84

L83 84

L84 84

L84 84

L85 85

L85 85

L86 86

L86 86

L86 87

L86 87

L86 88

L86 88

L86 89

L86 89

L85 90

L85 90

L84 90

L84 90

L83 90

L83 90

L82 90

L82 90

L81 90

L81 90

L80 89

L80 89

L79 88

L79 88

L79 87

L79 87

L79 86

L79 86

L81 84

L81 84

Z

"/>

</svg>

